<svg width="22" height="17" viewBox="0 0 22 17" fill="none" xmlns="http://www.w3.org/2000/svg">
<path d="M8.95348 10.9048C8.53394 10.9048 8.18604 11.1907 8.18604 11.5355V12.7967C8.18604 13.1415 8.53394 13.4274 8.95348 13.4274C9.37301 13.4274 9.72092 13.1415 9.72092 12.7967V11.5355C9.72092 11.1907 9.37301 10.9048 8.95348 10.9048Z" fill="white"/>
<path d="M21.2326 15.7387H20.2093V6.26226C20.2093 5.74093 19.9228 5.25323 19.4214 4.93371L12.2586 0.359465C11.5219 -0.119822 10.4781 -0.119822 9.7414 0.359465L2.5786 4.93371C2.07721 5.25323 1.7907 5.74093 1.7907 6.25385L1.73953 15.7387H0.767442C0.347907 15.7387 0 16.0162 0 16.3694C0 16.7141 0.347907 17 0.767442 17H21.2326C21.6521 17 22 16.7141 22 16.3694C22 16.0162 21.6521 15.7387 21.2326 15.7387ZM9.46512 3.5463H12.5349C12.9544 3.5463 13.3023 3.83219 13.3023 4.17694C13.3023 4.52169 12.9544 4.80758 12.5349 4.80758H9.46512C9.04558 4.80758 8.69767 4.52169 8.69767 4.17694C8.69767 3.83219 9.04558 3.5463 9.46512 3.5463ZM16.1163 15.7387H5.88372V8.38117C5.88372 7.68326 6.5693 7.11989 7.4186 7.11989H14.5814C15.4307 7.11989 16.1163 7.68326 16.1163 8.38117V15.7387Z" fill="white"/>
</svg>
