<svg width="18" height="16" viewBox="0 0 18 16" fill="none" xmlns="http://www.w3.org/2000/svg">
<path d="M11.9915 15.974H11.8801C8.0745 15.974 6.24026 14.613 5.92312 11.5644C5.88884 11.2456 6.14597 10.9578 6.50597 10.9267C6.85739 10.8956 7.17452 11.1367 7.20881 11.4555C7.45737 13.8975 8.72591 14.8074 11.8887 14.8074H12.0001C15.4886 14.8074 16.7229 13.6875 16.7229 10.5223V5.45168C16.7229 2.28644 15.4886 1.16655 12.0001 1.16655H11.8887C8.70877 1.16655 7.44023 2.09201 7.20881 4.58065C7.16595 4.89951 6.87453 5.1406 6.50597 5.10949C6.14597 5.08616 5.88884 4.79841 5.91455 4.47955C6.20597 1.38431 8.04879 0 11.8801 0H11.9915C16.2 0 18 1.63317 18 5.45168V10.5223C18 14.3408 16.2 15.974 11.9915 15.974Z" fill="white"/>
<path d="M11.6826 8.57027H0.642842C0.291422 8.57027 0 8.30585 0 7.98699C0 7.66814 0.291422 7.40372 0.642842 7.40372H11.6826C12.034 7.40372 12.3254 7.66814 12.3254 7.98699C12.3254 8.30585 12.0426 8.57027 11.6826 8.57027Z" fill="white"/>
<path d="M9.77101 11.1757C9.60816 11.1757 9.4453 11.1212 9.31673 11.0046C9.06817 10.779 9.06817 10.4057 9.31673 10.1802L11.7338 7.98708L9.31673 5.79396C9.06817 5.56842 9.06817 5.19513 9.31673 4.9696C9.5653 4.74406 9.97672 4.74406 10.2253 4.9696L13.0966 7.5749C13.3452 7.80043 13.3452 8.17373 13.0966 8.39926L10.2253 11.0046C10.0967 11.1212 9.93386 11.1757 9.77101 11.1757Z" fill="white"/>
</svg>
