<svg width="18" height="17" viewBox="0 0 18 17" fill="none" xmlns="http://www.w3.org/2000/svg">
<path d="M9 17C4.03535 17 0 13.1888 0 8.5C0 3.81116 4.03535 0 9 0C13.9647 0 18 3.81116 18 8.5C18 13.1888 13.9647 17 9 17ZM9 1.18605C4.73023 1.18605 1.25581 4.46744 1.25581 8.5C1.25581 12.5326 4.73023 15.814 9 15.814C13.2698 15.814 16.7442 12.5326 16.7442 8.5C16.7442 4.46744 13.2698 1.18605 9 1.18605Z" fill="white"/>
<path d="M8.99998 9.88371C8.65672 9.88371 8.37207 9.61487 8.37207 9.29068V5.33719C8.37207 5.01301 8.65672 4.74417 8.99998 4.74417C9.34323 4.74417 9.62788 5.01301 9.62788 5.33719V9.29068C9.62788 9.61487 9.34323 9.88371 8.99998 9.88371Z" fill="white"/>
<path d="M8.99999 12.4534C8.89115 12.4534 8.78232 12.4297 8.68185 12.3902C8.58139 12.3506 8.48929 12.2953 8.40557 12.2241C8.33022 12.145 8.27162 12.066 8.22976 11.9632C8.1879 11.8683 8.16278 11.7655 8.16278 11.6627C8.16278 11.5599 8.1879 11.4571 8.22976 11.3623C8.27162 11.2674 8.33022 11.1804 8.40557 11.1013C8.48929 11.0302 8.58139 10.9748 8.68185 10.9353C8.88278 10.8562 9.1172 10.8562 9.31813 10.9353C9.41859 10.9748 9.51069 11.0302 9.59441 11.1013C9.66976 11.1804 9.72836 11.2674 9.77022 11.3623C9.81208 11.4571 9.8372 11.5599 9.8372 11.6627C9.8372 11.7655 9.81208 11.8683 9.77022 11.9632C9.72836 12.066 9.66976 12.145 9.59441 12.2241C9.51069 12.2953 9.41859 12.3506 9.31813 12.3902C9.21766 12.4297 9.10883 12.4534 8.99999 12.4534Z" fill="white"/>
</svg>
